<svg width="123" height="19" viewBox="0 0 123 19" fill="none" xmlns="http://www.w3.org/2000/svg">
<path d="M7.36364 18.2557C6.02273 18.2557 4.86932 17.9716 3.90341 17.4034C2.94318 16.8295 2.20455 16.0341 1.6875 15.017C1.17614 14 0.920455 12.8295 0.920455 11.5057C0.920455 10.1648 1.17898 8.98864 1.69602 7.97727C2.21875 6.96023 2.96023 6.16761 3.92045 5.59943C4.88068 5.02557 6.02273 4.73864 7.34659 4.73864C8.48864 4.73864 9.48864 4.94602 10.3466 5.36079C11.2045 5.77557 11.8835 6.35795 12.3835 7.10795C12.8835 7.85795 13.1591 8.73864 13.2102 9.75H9.78409C9.6875 9.09659 9.43182 8.57102 9.01705 8.1733C8.60795 7.76989 8.07102 7.56818 7.40625 7.56818C6.84375 7.56818 6.35227 7.72159 5.93182 8.02841C5.51705 8.32955 5.19318 8.76989 4.96023 9.34943C4.72727 9.92898 4.6108 10.6307 4.6108 11.4545C4.6108 12.2898 4.72443 13 4.9517 13.5852C5.18466 14.1705 5.51136 14.6165 5.93182 14.9233C6.35227 15.2301 6.84375 15.3835 7.40625 15.3835C7.82102 15.3835 8.19318 15.2983 8.52273 15.1278C8.85795 14.9574 9.13352 14.7102 9.34943 14.3864C9.57102 14.0568 9.71591 13.6619 9.78409 13.2017H13.2102C13.1534 14.2017 12.8807 15.0824 12.392 15.8438C11.9091 16.5994 11.2415 17.1903 10.3892 17.6165C9.53693 18.0426 8.52841 18.2557 7.36364 18.2557ZM21.4496 18.2557C20.1257 18.2557 18.9808 17.9744 18.0149 17.4119C17.0547 16.8437 16.3132 16.054 15.7905 15.0426C15.2678 14.0256 15.0064 12.8466 15.0064 11.5057C15.0064 10.1534 15.2678 8.97159 15.7905 7.96023C16.3132 6.94318 17.0547 6.15341 18.0149 5.59091C18.9808 5.02273 20.1257 4.73864 21.4496 4.73864C22.7734 4.73864 23.9155 5.02273 24.8757 5.59091C25.8416 6.15341 26.5859 6.94318 27.1087 7.96023C27.6314 8.97159 27.8928 10.1534 27.8928 11.5057C27.8928 12.8466 27.6314 14.0256 27.1087 15.0426C26.5859 16.054 25.8416 16.8437 24.8757 17.4119C23.9155 17.9744 22.7734 18.2557 21.4496 18.2557ZM21.4666 15.4432C22.0689 15.4432 22.5717 15.2727 22.9751 14.9318C23.3786 14.5852 23.6825 14.1136 23.8871 13.517C24.0973 12.9205 24.2024 12.2415 24.2024 11.4801C24.2024 10.7188 24.0973 10.0398 23.8871 9.44318C23.6825 8.84659 23.3786 8.375 22.9751 8.02841C22.5717 7.68182 22.0689 7.50852 21.4666 7.50852C20.8587 7.50852 20.3473 7.68182 19.9325 8.02841C19.5234 8.375 19.2138 8.84659 19.0036 9.44318C18.799 10.0398 18.6967 10.7188 18.6967 11.4801C18.6967 12.2415 18.799 12.9205 19.0036 13.517C19.2138 14.1136 19.5234 14.5852 19.9325 14.9318C20.3473 15.2727 20.8587 15.4432 21.4666 15.4432ZM35.0774 18.2131C34.0831 18.2131 33.1825 17.9574 32.3757 17.446C31.5746 16.929 30.9382 16.1705 30.4666 15.1705C30.0007 14.1648 29.7678 12.9318 29.7678 11.4716C29.7678 9.97159 30.0092 8.72443 30.4922 7.73011C30.9751 6.73011 31.6172 5.98295 32.4183 5.48864C33.2251 4.98864 34.1087 4.73864 35.0689 4.73864C35.8018 4.73864 36.4126 4.86364 36.9013 5.11364C37.3956 5.35795 37.7933 5.66477 38.0945 6.03409C38.4013 6.39773 38.6342 6.75568 38.7933 7.10795H38.9041V0.545454H42.5263V18H38.9467V15.9034H38.7933C38.6229 16.267 38.3814 16.6278 38.0689 16.9858C37.7621 17.3381 37.3615 17.6307 36.8672 17.8636C36.3786 18.0966 35.782 18.2131 35.0774 18.2131ZM36.228 15.3239C36.8132 15.3239 37.3075 15.1648 37.7109 14.8466C38.12 14.5227 38.4325 14.071 38.6484 13.4915C38.87 12.9119 38.9808 12.233 38.9808 11.4545C38.9808 10.6761 38.8729 10 38.657 9.42614C38.4411 8.85227 38.1286 8.40909 37.7195 8.09659C37.3104 7.78409 36.8132 7.62784 36.228 7.62784C35.6314 7.62784 35.1286 7.78977 34.7195 8.11364C34.3104 8.4375 34.0007 8.88636 33.7905 9.46023C33.5803 10.0341 33.4751 10.6989 33.4751 11.4545C33.4751 12.2159 33.5803 12.8892 33.7905 13.4744C34.0064 14.054 34.3161 14.5085 34.7195 14.8381C35.1286 15.1619 35.6314 15.3239 36.228 15.3239ZM51.4773 18.2557C50.1307 18.2557 48.9716 17.983 48 17.4375C47.0341 16.8864 46.2898 16.108 45.767 15.1023C45.2443 14.0909 44.983 12.8949 44.983 11.5142C44.983 10.1676 45.2443 8.9858 45.767 7.96875C46.2898 6.9517 47.0256 6.15909 47.9744 5.59091C48.929 5.02273 50.0483 4.73864 51.3324 4.73864C52.196 4.73864 53 4.87784 53.7443 5.15625C54.4943 5.42898 55.1477 5.84091 55.7045 6.39205C56.267 6.94318 56.7045 7.63636 57.017 8.47159C57.3295 9.30114 57.4858 10.2727 57.4858 11.3864V12.3835H46.4318V10.1335H54.0682C54.0682 9.6108 53.9545 9.14773 53.7273 8.74432C53.5 8.34091 53.1847 8.02557 52.7812 7.7983C52.3835 7.56534 51.9205 7.44886 51.392 7.44886C50.8409 7.44886 50.3523 7.5767 49.9261 7.83239C49.5057 8.08239 49.1761 8.42045 48.9375 8.84659C48.6989 9.26705 48.5767 9.7358 48.571 10.2528V12.392C48.571 13.0398 48.6903 13.5994 48.929 14.071C49.1733 14.5426 49.517 14.9062 49.9602 15.1619C50.4034 15.4176 50.929 15.5455 51.5369 15.5455C51.9403 15.5455 52.3097 15.4886 52.6449 15.375C52.9801 15.2614 53.267 15.0909 53.5057 14.8636C53.7443 14.6364 53.9261 14.358 54.0511 14.0284L57.4091 14.25C57.2386 15.0568 56.8892 15.7614 56.3608 16.3636C55.8381 16.9602 55.1619 17.4261 54.3324 17.7614C53.5085 18.0909 52.5568 18.2557 51.4773 18.2557ZM64.679 18.2131C63.6847 18.2131 62.7841 17.9574 61.9773 17.446C61.1761 16.929 60.5398 16.1705 60.0682 15.1705C59.6023 14.1648 59.3693 12.9318 59.3693 11.4716C59.3693 9.97159 59.6108 8.72443 60.0938 7.73011C60.5767 6.73011 61.2188 5.98295 62.0199 5.48864C62.8267 4.98864 63.7102 4.73864 64.6705 4.73864C65.4034 4.73864 66.0142 4.86364 66.5028 5.11364C66.9972 5.35795 67.3949 5.66477 67.696 6.03409C68.0028 6.39773 68.2358 6.75568 68.3949 7.10795H68.5057V0.545454H72.1278V18H68.5483V15.9034H68.3949C68.2244 16.267 67.983 16.6278 67.6705 16.9858C67.3636 17.3381 66.9631 17.6307 66.4688 17.8636C65.9801 18.0966 65.3835 18.2131 64.679 18.2131ZM65.8295 15.3239C66.4148 15.3239 66.9091 15.1648 67.3125 14.8466C67.7216 14.5227 68.0341 14.071 68.25 13.4915C68.4716 12.9119 68.5824 12.233 68.5824 11.4545C68.5824 10.6761 68.4744 10 68.2585 9.42614C68.0426 8.85227 67.7301 8.40909 67.321 8.09659C66.9119 7.78409 66.4148 7.62784 65.8295 7.62784C65.233 7.62784 64.7301 7.78977 64.321 8.11364C63.9119 8.4375 63.6023 8.88636 63.392 9.46023C63.1818 10.0341 63.0767 10.6989 63.0767 11.4545C63.0767 12.2159 63.1818 12.8892 63.392 13.4744C63.608 14.054 63.9176 14.5085 64.321 14.8381C64.7301 15.1619 65.233 15.3239 65.8295 15.3239ZM78.8459 18.2472C78.0107 18.2472 77.2663 18.1023 76.6129 17.8125C75.9595 17.517 75.4425 17.0824 75.0618 16.5085C74.6868 15.929 74.4993 15.2074 74.4993 14.3438C74.4993 13.6165 74.6328 13.0057 74.8999 12.5114C75.1669 12.017 75.5305 11.6193 75.9908 11.3182C76.451 11.017 76.9737 10.7898 77.5589 10.6364C78.1499 10.483 78.7692 10.375 79.4169 10.3125C80.1783 10.233 80.7919 10.1591 81.2578 10.0909C81.7237 10.017 82.0618 9.90909 82.272 9.76705C82.4822 9.625 82.5874 9.41477 82.5874 9.13636V9.08523C82.5874 8.54545 82.4169 8.12784 82.076 7.83239C81.7408 7.53693 81.2635 7.3892 80.6442 7.3892C79.9908 7.3892 79.4709 7.53409 79.0845 7.82386C78.6982 8.10795 78.4425 8.46591 78.3175 8.89773L74.9595 8.625C75.13 7.82955 75.4652 7.14205 75.9652 6.5625C76.4652 5.97727 77.1101 5.52841 77.8999 5.21591C78.6953 4.89773 79.6158 4.73864 80.6612 4.73864C81.3885 4.73864 82.0845 4.82386 82.7493 4.99432C83.4197 5.16477 84.0135 5.42898 84.5305 5.78693C85.0533 6.14489 85.4652 6.60511 85.7663 7.16761C86.0675 7.72443 86.218 8.39205 86.218 9.17045V18H82.7749V16.1847H82.6726C82.4624 16.5938 82.1811 16.9545 81.8288 17.267C81.4766 17.5739 81.0533 17.8153 80.5589 17.9915C80.0646 18.1619 79.4936 18.2472 78.8459 18.2472ZM79.8857 15.7415C80.4197 15.7415 80.8913 15.6364 81.3004 15.4261C81.7095 15.2102 82.0305 14.9205 82.2635 14.5568C82.4964 14.1932 82.6129 13.7812 82.6129 13.321V11.9318C82.4993 12.0057 82.343 12.0739 82.1442 12.1364C81.951 12.1932 81.7322 12.2472 81.4879 12.2983C81.2436 12.3437 80.9993 12.3864 80.755 12.4261C80.5107 12.4602 80.2891 12.4915 80.0902 12.5199C79.6641 12.5824 79.2919 12.6818 78.9737 12.8182C78.6555 12.9545 78.4084 13.1392 78.2322 13.3722C78.0561 13.5994 77.968 13.8835 77.968 14.2244C77.968 14.7188 78.147 15.0966 78.505 15.358C78.8686 15.6136 79.3288 15.7415 79.8857 15.7415ZM89.0348 18V4.90909H92.495V7.21875H92.6484C92.9212 6.4517 93.3757 5.84659 94.0121 5.40341C94.6484 4.96023 95.4098 4.73864 96.2962 4.73864C97.1939 4.73864 97.9581 4.96307 98.5888 5.41193C99.2195 5.85511 99.6399 6.45739 99.8501 7.21875H99.9865C100.254 6.46875 100.737 5.86932 101.435 5.42045C102.14 4.96591 102.972 4.73864 103.933 4.73864C105.154 4.73864 106.146 5.12784 106.907 5.90625C107.674 6.67898 108.058 7.77557 108.058 9.19602V18H104.435V9.91193C104.435 9.18466 104.242 8.6392 103.856 8.27557C103.469 7.91193 102.987 7.73011 102.407 7.73011C101.748 7.73011 101.234 7.94034 100.864 8.3608C100.495 8.77557 100.31 9.32386 100.31 10.0057V18H96.7905V9.83523C96.7905 9.19318 96.6058 8.68182 96.2365 8.30114C95.8729 7.92045 95.3928 7.73011 94.7962 7.73011C94.3928 7.73011 94.0291 7.83239 93.7053 8.03693C93.3871 8.2358 93.1342 8.51705 92.9467 8.88068C92.7592 9.23864 92.6655 9.65909 92.6655 10.142V18H89.0348ZM114.556 10.4318V18H110.925V4.90909H114.386V7.21875H114.539C114.829 6.45739 115.315 5.85511 115.996 5.41193C116.678 4.96307 117.505 4.73864 118.477 4.73864C119.386 4.73864 120.178 4.9375 120.854 5.33523C121.531 5.73295 122.056 6.30114 122.431 7.03977C122.806 7.77273 122.994 8.64773 122.994 9.66477V18H119.363V10.3125C119.369 9.51136 119.164 8.88636 118.749 8.4375C118.335 7.98295 117.763 7.75568 117.036 7.75568C116.548 7.75568 116.116 7.8608 115.741 8.07102C115.371 8.28125 115.082 8.58807 114.871 8.99148C114.667 9.3892 114.562 9.86932 114.556 10.4318Z" fill="#18181B"/>
</svg>
