<svg width="24" height="24" viewBox="0 0 24 24" fill="none" xmlns="http://www.w3.org/2000/svg">
<path d="M20.2309 11.0814C20.2031 10.9605 20.1457 10.8484 20.0639 10.7552C19.982 10.6619 19.8784 10.5904 19.7622 10.5471L14.3622 8.52206L15.7309 1.65018C15.7624 1.491 15.742 1.32593 15.6729 1.17915C15.6037 1.03237 15.4893 0.911604 15.3465 0.834557C15.2023 0.757845 15.0368 0.73096 14.8757 0.75809C14.7146 0.785219 14.567 0.864839 14.4559 0.984557L3.95591 12.2346C3.86987 12.3238 3.80762 12.4333 3.77486 12.5528C3.7421 12.6724 3.73988 12.7983 3.76841 12.9189C3.79776 13.0392 3.8557 13.1505 3.93731 13.2436C4.01892 13.3366 4.12178 13.4085 4.23716 13.4533L9.63716 15.4783L8.2684 22.3502C8.23693 22.5094 8.25726 22.6744 8.32644 22.8212C8.39561 22.968 8.50998 23.0888 8.65278 23.1658C8.76042 23.2201 8.8791 23.249 8.99965 23.2502C9.10154 23.2506 9.20241 23.23 9.29597 23.1897C9.38953 23.1494 9.47377 23.0902 9.54341 23.0158L20.0434 11.7658C20.1294 11.6765 20.1917 11.5671 20.2245 11.4475C20.2572 11.328 20.2594 11.2021 20.2309 11.0814Z" fill="#6366F1"/>
</svg>
